<svg xmlns="http://www.w3.org/2000/svg" viewBox="0 0 32 32" role="img" aria-label="Lighthouse Insights">
  <rect width="32" height="32" rx="6" fill="#F97316"/>
  <!-- beams -->
  <path fill="#FFFFFF" d="M3.5 11.5 L14 13.2 L14 15.3 L3.5 14.2 Z"/>
  <path fill="#FFFFFF" d="M28.5 11.5 L18 13.2 L18 15.3 L28.5 14.2 Z"/>
  <!-- roof -->
  <path fill="#FFFFFF" d="M13.2 7.2 L16 5.2 L18.8 7.2 Z"/>
  <!-- lantern -->
  <rect x="13.4" y="7.2" width="5.2" height="4.2" fill="#FFFFFF"/>
  <rect x="14.2" y="7.8" width="0.9" height="2.8" fill="#F97316"/>
  <rect x="15.55" y="7.8" width="0.9" height="2.8" fill="#F97316"/>
  <rect x="16.9" y="7.8" width="0.9" height="2.8" fill="#F97316"/>
  <!-- gallery -->
  <rect x="12.2" y="11.2" width="7.6" height="1.4" fill="#FFFFFF"/>
  <!-- tower -->
  <path fill="#FFFFFF" d="M13.4 12.6 L18.6 12.6 L17.5 24.2 L14.5 24.2 Z"/>
  <!-- door -->
  <path fill="#F97316" d="M15.2 21.6 H16.8 V24.2 H15.2 Z"/>
  <!-- base -->
  <rect x="12.4" y="24.2" width="7.2" height="1.8" rx="0.3" fill="#FFFFFF"/>
  <rect x="11.2" y="26" width="9.6" height="1.6" rx="0.3" fill="#FFFFFF"/>
</svg>
